# xmcd
#
# Track frame offsets: 
#        150
#        21234
#        32208
#        58091
#        73715
#        95693
#        106930
#        127126
#        140758
#        154583
#        167391
#        180735
#        200015
#        211191
#        224711
#        240100
#        253413
#        265482
#        280672
#        293824
#        307561
#
# Disc length: 4333 seconds
#
# Revision: 1
# Processed by: cddbd v1.5.2PL0 Copyright (c) Steve Scherf et al.
# Submitted via: ExactAudioCopy v0.99pb4
#
DISCID=4010eb15
DTITLE=Sunnyland Slim and Big Voice Odom - Chicago Blues Festival 1974 W
DTITLE=ith Jimmy Dawkins
DYEAR=2005
DGENRE=blues
TTITLE0=Sweet Laura Take 4
TTITLE1=Come To Me Take 3
TTITLE2=No More Troubles
TTITLE3=Tell Me Woman
TTITLE4=Don't Ever Leave Me Alone
TTITLE5=Come To Me Take 2
TTITLE6=Sweet Laura Take 1
TTITLE7=Worried About My Baby
TTITLE8=She Used To Love Me
TTITLE9=So Glad
TTITLE10=She Is So Soft And So Mellow Take 2
TTITLE11=Levee Camp Blues
TTITLE12=I Got To Quit My Baby
TTITLE13=Depression Blues
TTITLE14=See My Lawyer
TTITLE15=It's You Baby
TTITLE16=No More Whiskey
TTITLE17=I Done You Wrong
TTITLE18=Swingin' In Paris
TTITLE19=She Is So Soft And So Mellow Take 1
TTITLE20=Untitled Instrumental
EXTD=
EXTT0=
EXTT1=
EXTT2=
EXTT3=
EXTT4=
EXTT5=
EXTT6=
EXTT7=
EXTT8=
EXTT9=
EXTT10=
EXTT11=
EXTT12=
EXTT13=
EXTT14=
EXTT15=
EXTT16=
EXTT17=
EXTT18=
EXTT19=
EXTT20=
PLAYORDER=
